<?xml version="1.0" standalone="no"?><!DOCTYPE svg PUBLIC "-//W3C//DTD SVG 1.1//EN" "http://www.w3.org/Graphics/SVG/1.1/DTD/svg11.dtd"><svg xmlns="http://www.w3.org/2000/svg" version="1.1" width="426.034" height="260.011" xmlns:xlink="http://www.w3.org/1999/xlink" xlink="http://www.w3.org/1999/xlink" style="position:relative;overflow:hidden;" viewBox="-12 -12 426.034 260.011"><defs/><g><g width="200" height="208.333" transform="scale(1,1) translate(16.667,12.5)"><g transform="scale(1,1) translate(0,0)" stroke="#909090" fill="#B7DDE8" fill-opacity="1" stroke-opacity="1"><path d="M0,40 a40,40 0 0,1 40,-40 l120,0 a40,40 0 0,1 40,40 l0,128.333 a40,40 0 0,1 -40,40 l-120,0 a40,40 0 0,1 -40,-40 z" stroke-width="1.333" stroke-dasharray="none"/></g></g><g width="166.667" height="133.333" transform="scale(1,1) translate(33.333,70.833)"><g transform="scale(1,1) translate(0,0)" stroke="#909090" fill="#b7dde8" fill-opacity="1" stroke-opacity="1"><path d="M0,26.667 a26.667,26.667 0 0,1 26.667,-26.667 l113.333,0 a26.667,26.667 0 0,1 26.667,26.667 l0,80 a26.667,26.667 0 0,1 -26.667,26.667 l-113.333,0 a26.667,26.667 0 0,1 -26.667,-26.667 z" stroke-width="1.333" stroke-dasharray="none"/></g></g><g width="133.333" height="75" transform="scale(1,1) translate(50,112.5)"><g transform="scale(1,1) translate(0,0)" stroke="#909090" fill="#b7dde8" fill-opacity="1" stroke-opacity="1"><path d="M0,15 a15,15 0 0,1 15,-15 l103.333,0 a15,15 0 0,1 15,15 l0,45 a15,15 0 0,1 -15,15 l-103.333,0 a15,15 0 0,1 -15,-15 z" stroke-width="1.333" stroke-dasharray="none"/></g><g width="119.36941375618454" height="61.03608026390545" transform="scale(1,1) translate(6.982,6.982)"><text width="119.36941375618454" height="16.666664123535156" transform="scale(1,1) translate(0,22.184708070185145)" xml:space="preserve"><tspan xml:space="preserve" text-rendering="optimizeSpeed" style="font-family: Arial, Helvetica Neue, Helvetica, sans-serif;" font-size="13.88888888888889" font-weight="normal" font-style="normal" fill="#333333" opacity="1" x="12.289" text-anchor="start" y="13.542" textLength="94.7916488647461">Field Arithmetic</tspan></text></g></g><g width="125.521" height="17.708" transform="scale(1,1) translate(66.406,82.813)"><g stroke="#545454" opacity="1" stroke-width="0" stroke-dasharray="none" width="125.521" height="17.708" transform="scale(1,1) translate(0,0)" fill="none" stroke-opacity="1"><rect width="125.521" height="17.708"/></g><g width="125.5208232402801" height="17.708331406116514" transform="scale(1,1) translate(0,0)"><text width="125.5208232402801" height="16.666664123535156" transform="scale(1,1) translate(0,0.5208336412906789)" xml:space="preserve"><tspan xml:space="preserve" text-rendering="optimizeSpeed" style="font-family: Arial, Helvetica Neue, Helvetica, sans-serif;" font-size="13.88888888888889" font-weight="normal" font-style="normal" fill="#333333" opacity="1" x="0" text-anchor="start" y="13.542" textLength="106.24998474121094">Curve Operations</tspan></text></g></g><g width="158.333" height="18.75" transform="scale(1,1) translate(37.5,36.458)"><g stroke="#545454" opacity="1" stroke-width="0" stroke-dasharray="none" width="158.333" height="18.75" transform="scale(1,1) translate(0,0)" fill="none" stroke-opacity="1"><rect width="158.333" height="18.75"/></g><g width="158.33331298828125" height="18.749996185302734" transform="scale(1,1) translate(0,0)"><text width="158.33331298828125" height="16.666664123535156" transform="scale(1,1) translate(0,1.041666030883789)" xml:space="preserve"><tspan xml:space="preserve" text-rendering="optimizeSpeed" style="font-family: Arial, Helvetica Neue, Helvetica, sans-serif;" font-size="13.88888888888889" font-weight="normal" font-style="normal" fill="#333333" opacity="1" x="0" text-anchor="start" y="13.542" textLength="158.33331298828125">Key Exchange Operations</tspan></text></g></g><g width="100" height="50" transform="scale(1,1) translate(304.167,133.333)"><g stroke="#909090" opacity="1" stroke-width="1.3333333333333333" stroke-dasharray="none" width="100" height="50" transform="scale(1,1) translate(0,0)" fill="#D8D8D8" fill-opacity="1" stroke-opacity="1"><rect width="100" height="50"/></g><g width="94.66666666666667" height="44.666666666666664" transform="scale(1,1) translate(2.667,2.667)"><text width="94.66666666666667" height="16.666664123535156" transform="scale(1,1) translate(0,14.000001271565754)" xml:space="preserve"><tspan xml:space="preserve" text-rendering="optimizeSpeed" style="font-family: Arial, Helvetica Neue, Helvetica, sans-serif;" font-size="13.88888888888889" font-weight="normal" font-style="normal" fill="#333333" opacity="1" x="32.229" text-anchor="start" y="13.542" textLength="30.208330154418945">fpx.c</tspan></text></g></g><g width="100" height="50" transform="scale(1,1) translate(304.167,75)"><g stroke="#909090" opacity="1" stroke-width="1.3333333333333333" stroke-dasharray="none" width="100" height="50" transform="scale(1,1) translate(0,0)" fill="#D8D8D8" fill-opacity="1" stroke-opacity="1"><rect width="100" height="50"/></g><g width="94.66666666666667" height="44.666666666666664" transform="scale(1,1) translate(2.667,2.667)"><text width="94.66666666666667" height="16.666664123535156" transform="scale(1,1) translate(0,14.000001271565754)" xml:space="preserve"><tspan xml:space="preserve" text-rendering="optimizeSpeed" style="font-family: Arial, Helvetica Neue, Helvetica, sans-serif;" font-size="13.88888888888889" font-weight="normal" font-style="normal" fill="#333333" opacity="1" x="7.75" text-anchor="start" y="13.542" textLength="79.16665649414062">ec_isogeny.c</tspan></text></g></g><g width="100" height="50" transform="scale(1,1) translate(304.167,16.667)"><g stroke="#909090" opacity="1" stroke-width="1.3333333333333333" stroke-dasharray="none" width="100" height="50" transform="scale(1,1) translate(0,0)" fill="#D8D8D8" fill-opacity="1" stroke-opacity="1"><rect width="100" height="50"/></g><g width="94.66666666666667" height="44.666666666666664" transform="scale(1,1) translate(2.667,2.667)"><text width="94.66666666666667" height="16.666664123535156" transform="scale(1,1) translate(0,14.000001271565754)" xml:space="preserve"><tspan xml:space="preserve" text-rendering="optimizeSpeed" style="font-family: Arial, Helvetica Neue, Helvetica, sans-serif;" font-size="13.88888888888889" font-weight="normal" font-style="normal" fill="#333333" opacity="1" x="30.667" text-anchor="start" y="13.542" textLength="33.33332824707031">kex.c</tspan></text></g></g><g width="120.833" height="0" transform="scale(1,1) translate(183.333,158.333)"><g transform="scale(1,1) translate(0,0)" fill="#000000" stroke="#000000" stroke-opacity="1"><path d="M120.833,0 L18,0" fill="none" stroke-width="5" stroke-dasharray="none"/><g><g stroke-dasharray="none"><path d="M18,9L0,0L18,-9z" stroke="none" fill-opacity="1"/></g></g></g></g><g width="106.25" height="0" transform="scale(1,1) translate(197.917,100)"><g transform="scale(1,1) translate(0,0)" fill="#000000" stroke="#000000" stroke-opacity="1"><path d="M106.25,0 L18,0" fill="none" stroke-width="5" stroke-dasharray="none"/><g><g stroke-dasharray="none"><path d="M18,9L0,0L18,-9z" stroke="none" fill-opacity="1"/></g></g></g></g><g width="91.667" height="0" transform="scale(1,1) translate(212.5,41.667)"><g transform="scale(1,1) translate(0,0)" fill="#000000" stroke="#000000" stroke-opacity="1"><path d="M91.667,0 L18,0" fill="none" stroke-width="5" stroke-dasharray="none"/><g><g stroke-dasharray="none"><path d="M18,9L0,0L18,-9z" stroke="none" fill-opacity="1"/></g></g></g></g></g></svg>